# xmcd CD database file
#
# Track frame offsets:
#	150
#	41669
#	69353
#	89977
#	118180
#	133933
#	177000
#	197183
#	226891
#	254174
#
# Disc length: 3772 seconds
#
# Revision: 0
# Processed by: cddbd v1.5.2PL0 Copyright (c) Steve Scherf et al.
# Submitted via: CDex 1.51
#
DISCID=990eba0a
DTITLE=Scatsy - Plutôt Maxime
DYEAR=2005
DGENRE=Jazz
TTITLE0=Mon frère - Tu n'es pas là
TTITLE1=San Francisco - Attendez moi
TTITLE2=Fontenay-aux-Roses - Rosa Gallica
TTITLE3=La Chanson du Jongleur - Rebonds
TTITLE4=Marie, Pierre et Charlemagne - Fugue d'école
TTITLE5=Là où - La Déchirure
TTITLE6=Dialogie - Générations
TTITLE7=Education sentimentale - La Colline
TTITLE8=Ca sert à quoi tout ça - Ce qu'il nous reste
TTITLE9=J'ai eu trente ans - Triginta
EXTD=YEAR: 2005
EXTT0=
EXTT1=
EXTT2=
EXTT3=
EXTT4=
EXTT5=
EXTT6=
EXTT7=
EXTT8=
EXTT9=
PLAYORDER=
